<?xml version="1.0" encoding="UTF-8"?><svg xmlns="http://www.w3.org/2000/svg" xmlns:xlink="http://www.w3.org/1999/xlink" height="449.4" preserveAspectRatio="xMidYMid meet" version="1.0" viewBox="-0.8 -5.4 253.9 449.4" width="253.9" zoomAndPan="magnify"><g id="change1_1"><path d="M251.901,237.43c-0.855-1.163-11.795-20.417-11.795-20.417l-8.983-17.966l-6.94-16.579l-0.079,0.038l0,0 l5.443-2.663c0,0-0.467-1.63-2.551-7.121c0.096-0.295-0.048-0.638-0.318-0.835c-2.346-6.139-6.521-16.62-13.845-34.008 c-8.533-20.258-18.289-36.088-24.374-45.07c-4.586-6.77-12.023-11.272-20.192-11.637c-0.5-0.022-0.994-0.039-1.486-0.056 c0.001-0.028,0.003-0.052,0.003-0.052l-20.233-0.314l0,0.002c-0.708-0.03-1.412-0.06-2.156-0.09l1.388-15.791 c0.945-2.556,1.765-5.253,2.435-8.028c3.444,0.216,6.644-2.471,7.337-6.313c0.724-4.016-1.561-7.797-5.127-8.59 c0.325-0.659,0.624-1.414,0.831-2.271c0.494-2.049,0.411-4.222,0.055-6.123c2.615-1.299,5.004-3.117,6.935-5.645 c0,0-2.243-5.493-10.158-9.872c0,0,5.142-3.901,6.018-8.2c0,0-21.416-15.206-37.577,0.557c0,0,0.358-6.568-1.473-10.389 c0,0-7.762,3.742-10.987,6.926s-1.831,7.882-1.831,7.882s-2.189-3.264-7.683-3.782c0,0-2.667,6.966,2.309,10.23 c0,0-6.21,3.145-5.175,12.061c0.567,4.882,2.754,8.71,4.62,11.183c-3.136,0.872-5.317,4.136-5.031,7.844 c0.321,4.162,3.626,7.301,7.381,7.011c0.004,0,0.008-0.001,0.012-0.002c1.028,3.945,2.601,7.704,4.933,10.836 c-0.103,0.245-0.095,0.538,0.13,0.791c0.013,0.015,0.028,0.028,0.041,0.043l0.343,8.588c0,0,0.016,0.035,0.04,0.086 c-6.643-0.076-13.87-0.127-21.727-0.142l-0.144,0.037c-8.897,0.217-16.179,4.741-20.935,11.813 c-6.107,9.081-15.614,24.649-23.953,44.446c-14.685,34.864-16.714,41.964-16.714,41.964l6.347,3.105l-5.836,13.941l-8.983,17.966 c0,0-10.939,19.254-11.795,20.417c-1.183,1.608,0.098,5.803,4.119,4.279c0.197,0.037,0.395-0.019,0.551-0.178 c-0.013,0.288,0.003,1.918,2.045,2.723c2.244,0.885,4.673-1.25,6.216-2.682c1.543-1.432,7.424-8.487,10.647-14.613 c0,0-1.015,8.719-0.26,9.877c0.755,1.158,2.655,2.163,4.377,0.706c1.722-1.457,16.166-27.976,18.235-34.302 c0.553-1.692,1.713-4.28,3.11-7.161l-0.029-0.014l0,0l8.006,3.917l14.598-43.794c0.201,0.334,0.648,0.481,0.983,0.337l-0.467,41.186 l-2.392,25.596c-0.875,6.22-1.602,12.821-2.615,19.53c-2.771,18.355-18.548,109.28-25.544,149.479 c-0.173,0.997-0.234,1.982-0.237,2.958c-0.634,0.092-0.815,1.191-0.05,1.486c0.036,0.014,0.073,0.026,0.11,0.039 c0.602,7.052,5.469,13.102,12.269,15.167c0.22,0.433,0.819,0.591,1.155,0.294c0.923,0.213,1.868,0.377,2.847,0.438l0.318,0.02v0 l-0.195-0.012l-1.776,14.134l0,0c-1.695,0.057-7.364,1.57-10.344,5.252c-4.44,5.488-3.293,16.091-3.293,16.091l39.583-0.044 l0.415-19.567l1.77-14.219l-0.054-0.003l4.297,0.268c1.037,0.065,2.056,0.023,3.055-0.09c0.298,0.153,0.689,0.111,0.924-0.132 c6.319-1.059,11.569-5.534,13.616-11.602c0.591-0.146,0.721-0.897,0.371-1.264c0.219-0.861,0.395-1.741,0.482-2.653l8.633-90.248 l3.333,86.852c0.064,1.661,0.372,3.254,0.865,4.76c-0.043,0.27,0.044,0.557,0.261,0.739c2.224,5.874,7.511,10.188,13.86,11.079 c0.246,0.383,0.831,0.434,1.157,0.139c0.601,0.044,1.209,0.059,1.825,0.04l5.514-0.171l-0.253,0.008l2.053,16.496l0.415,19.567 l39.583,0.044c0,0,1.147-10.603-3.293-16.091c-2.979-3.682-8.648-5.195-10.344-5.252l0,0l-1.958-15.584l1.589-0.049 c9.172-0.284,16.414-7.583,16.867-16.518c0.66-0.306,0.537-1.241,0.003-1.425c-0.007-0.215,0.005-0.427-0.01-0.643 c-3.274-48.916-6.402-158.875-7.495-166.16c-0.039-0.261-0.089-0.543-0.145-0.839l0.145,0.002l-0.028-0.303 c0.664-0.304,0.485-1.288-0.132-1.413l-2.63-28.145c0,0-0.072-0.034-0.174-0.085l0.179-38.563c0.263,0.027,0.516-0.065,0.654-0.272 l15.056,45.168l8.799-4.305l0,0c1.944,3.87,3.661,7.539,4.375,9.72c2.069,6.326,16.513,32.845,18.235,34.302 s3.622,0.453,4.377-0.706c0.755-1.159-0.26-9.877-0.26-9.877c3.223,6.126,9.105,13.181,10.647,14.613 c1.543,1.432,3.972,3.567,6.216,2.682c2.042-0.805,2.059-2.435,2.045-2.723c0.156,0.158,0.353,0.214,0.55,0.177 C251.803,243.234,253.084,239.038,251.901,237.43z" fill="#F2A87D"/></g><g id="change1_2"><path d="M27.037,180.921l22.427,10.972c-1.398,2.881-2.557,5.469-3.11,7.161 c-2.069,6.326-16.513,32.845-18.235,34.302c-1.722,1.457-3.622,0.453-4.377-0.706c-0.755-1.159,0.26-9.877,0.26-9.877 c-3.223,6.126-9.105,13.181-10.647,14.613c-1.542,1.432-3.971,3.567-6.216,2.682s-2.042-2.772-2.042-2.772 c-4.462,2.152-5.909-2.372-4.672-4.053c0.855-1.163,11.795-20.417,11.795-20.417l8.983-17.966L27.037,180.921z M251.901,237.43 c-0.855-1.163-11.795-20.417-11.795-20.417l-8.983-17.966l-6.94-16.579l-22.587,11.051c1.944,3.87,3.661,7.539,4.375,9.72 c2.069,6.326,16.513,32.845,18.235,34.302s3.622,0.453,4.377-0.706c0.755-1.159-0.26-9.877-0.26-9.877 c3.223,6.126,9.105,13.181,10.647,14.613c1.543,1.432,3.972,3.567,6.216,2.682s2.042-2.772,2.042-2.772 C251.69,243.635,253.137,239.111,251.901,237.43z M56.445,422.653c0,0,18.043,9.809,26.362,1.732l1.77-14.219l-26.356-1.647 L56.445,422.653z M142.462,407.889l2.053,16.496c8.318,8.077,26.362-1.732,26.362-1.732l-1.958-15.584L142.462,407.889z M145.784,64.874c0.945-2.556,1.765-5.253,2.435-8.028c3.444,0.216,6.644-2.471,7.337-6.313c0.724-4.016-1.561-7.797-5.127-8.59 c-0.898,1.817-2.007,2.848-2.007,2.848s-2.385-4.46-3.16-9.162c-10.965,2.361-22.918-1.356-22.918-1.356 c0.637,3.344,0.637,5.732,0.637,5.732c-10.987,1.592-16.002-5.573-16.002-5.573c-0.717,7.165-7.802,13.234-7.802,13.234 s-1.322-1.122-2.864-3.166c-3.136,0.872-5.317,4.136-5.031,7.844c0.321,4.162,3.626,7.301,7.381,7.011 c0.004,0,0.008-0.001,0.012-0.002c1.05,4.03,2.664,7.87,5.079,11.041l0.368,9.216c0,0,7.407,16.454,19.198,16.873 c11.791,0.419,21.07-15.744,21.07-15.744L145.784,64.874z" fill="#F2A87D"/></g><g id="change2_1"><path d="M229.548,179.844l-36.75,17.98l-15.7-47.101l-0.284,61.324c0,0-21.58,1.895-48.995,1.625 c-27.415-0.27-55.448-3.802-55.448-3.802l0.69-60.933l-15.619,46.857l-36.75-17.98c0,0,2.029-7.1,16.714-41.964 c8.339-19.797,17.846-35.365,23.953-44.446c4.755-7.072,12.037-11.596,20.935-11.813l0.144-0.037 c7.857,0.016,15.083,0.066,21.727,0.142c0.565,1.216,7.84,16.385,19.158,16.787c11.791,0.419,21.07-15.744,21.07-15.744l0.007-0.077 c4.214,0.169,7.859,0.344,10.967,0.514c3.296-0.135,7.938-0.226,12.905-0.005c8.169,0.364,15.606,4.867,20.192,11.637 c6.084,8.982,15.841,24.812,24.374,45.07C227.519,172.744,229.548,179.844,229.548,179.844z M142.85,53.923 c0,3.909-3.18,7.089-7.089,7.089c-3.909,0-7.089-3.18-7.089-7.089c0-0.258,0.016-0.513,0.043-0.764c-1.363,0-2.727,0-4.09,0 c0.027,0.251,0.043,0.505,0.043,0.764c0,3.909-3.18,7.089-7.089,7.089c-3.909,0-7.09-3.18-7.09-7.089s3.18-7.089,7.09-7.089 c3.084,0,5.708,1.984,6.68,4.74c0.083-0.028,0.167-0.055,0.269-0.055c1.421,0,2.841,0,4.262,0c0.11,0,0.202,0.027,0.289,0.059 c0.971-2.758,3.596-4.744,6.682-4.744C139.67,46.834,142.85,50.014,142.85,53.923z M123.027,53.923c0-3.004-2.444-5.449-5.448-5.449 c-3.005,0-5.449,2.444-5.449,5.449s2.444,5.449,5.449,5.449C120.584,59.371,123.027,56.927,123.027,53.923z M141.21,53.923 c0-3.004-2.444-5.449-5.449-5.449s-5.448,2.444-5.448,5.449s2.444,5.449,5.448,5.449S141.21,56.927,141.21,53.923z" fill="#907BB7"/></g><g id="change3_1"><path d="M170.508,407.02l-33.307,1.033c-9.577,0.297-17.6-7.186-17.968-16.757l-3.333-86.852l-8.633,90.248 c-0.896,9.362-9.058,16.327-18.448,15.741l-30.721-1.919c-10.368-0.648-17.875-10.151-16.095-20.383 c6.996-40.198,22.772-131.123,25.544-149.479c1.013-6.709,1.74-13.309,2.615-19.53l2.548-27.265c0,0,9.209-4.186,12-14.512 c2.791-10.326-2.275-97.788-2.275-97.788l20.164,0.15l1.646,54.661l17.442,0.758l23.86-1.037l1.005-53.336l20.233,0.314 c0,0-4.493,85.673-1.703,95.998s12,14.512,12,14.512l2.791,29.86l-0.145-0.002c0.056,0.296,0.105,0.579,0.145,0.839 c1.093,7.285,4.221,117.244,7.495,166.16C188.028,398.285,180.38,406.714,170.508,407.02z" fill="#99CCB3"/></g><g id="change4_1"><path d="M181.22,427.905c4.44,5.488,3.293,16.091,3.293,16.091l-39.583-0.044l-0.415-19.567 c0,0,7.219,1.917,10.019-0.552c2.8-2.47,4.415-4.359,10.617-4.176c4.057,0.12,5.726,2.996,5.726,2.996l0,0 C172.572,422.71,178.241,424.223,181.22,427.905z M248.379,240.581c-3.131-6.503-7.133-12.549-11.875-17.989 c-0.635-0.729-1.693,0.336-1.061,1.061c4.658,5.345,8.565,11.298,11.641,17.686C247.502,242.208,248.796,241.448,248.379,240.581z M72.788,423.833c-2.8-2.47-4.415-4.359-10.617-4.176c-4.057,0.12-5.726,2.996-5.726,2.996l0,0 c-1.695,0.057-7.364,1.57-10.344,5.252c-4.44,5.488-3.293,16.091-3.293,16.091l39.583-0.044l0.415-19.567 C82.807,424.385,75.588,426.302,72.788,423.833z M91.693,33.318c1.035,8.917,7.484,14.349,7.484,14.349s7.085-6.069,7.802-13.234 c0,0,5.016,7.165,16.002,5.573c0,0,0-2.388-0.637-5.732c0,0,11.953,3.717,22.918,1.356c0.775,4.702,3.16,9.162,3.16,9.162 s2.062-1.899,2.838-5.118c0.494-2.049,0.411-4.222,0.055-6.123c2.615-1.299,5.004-3.117,6.935-5.645c0,0-2.243-5.493-10.158-9.872 c0,0,5.142-3.901,6.018-8.2c0,0-21.416-15.206-37.577,0.557c0,0,0.358-6.568-1.473-10.389c0,0-7.762,3.742-10.987,6.926 s-1.831,7.882-1.831,7.882s-2.189-3.264-7.683-3.782c0,0-2.667,6.966,2.309,10.23C96.868,21.257,90.659,24.401,91.693,33.318z M119.74,52.284c0.166-1.027-0.316-1.959-1.077-2.082c-0.761-0.123-1.512,0.61-1.678,1.637c-0.166,1.027,0.316,1.959,1.077,2.082 C118.822,54.044,119.574,53.311,119.74,52.284z M127.528,57.582c-0.711,0.325-1.972-0.057-2.357-0.217 c-0.379-0.158-0.82,0.021-0.979,0.404c-0.159,0.382,0.021,0.82,0.401,0.979c0.15,0.063,1.142,0.461,2.218,0.461 c0.449,0,0.913-0.069,1.336-0.262c0.618-0.28,1.063-0.786,1.289-1.462c0.233-0.703,0.188-1.404-0.132-2.027 c-0.687-1.338-2.39-1.899-2.581-1.959c-0.398-0.119-0.815,0.1-0.939,0.494c-0.122,0.396,0.099,0.816,0.494,0.939 c0.331,0.102,1.35,0.544,1.692,1.21c0.137,0.268,0.15,0.544,0.042,0.868C127.919,57.293,127.765,57.474,127.528,57.582z M119.647,63.092c-0.257-0.326-0.728-0.382-1.053-0.127c-0.325,0.256-0.383,0.727-0.128,1.052c0.046,0.059,3.442,4.305,8.224,4.305 c1.628,0,3.418-0.493,5.289-1.812c0.339-0.238,0.42-0.707,0.182-1.045c-0.239-0.339-0.707-0.42-1.045-0.182 C124.919,69.651,119.858,63.361,119.647,63.092z M121.697,45.995c-5.356-2.693-8.785,0.226-8.927,0.353 c-0.311,0.271-0.341,0.741-0.071,1.053c0.148,0.171,0.357,0.259,0.567,0.259c0.173,0,0.348-0.06,0.489-0.182 c0.114-0.097,2.846-2.368,7.268-0.143c0.371,0.187,0.82,0.037,1.007-0.333S122.067,46.182,121.697,45.995z M135.59,50.202 c-0.761,0.123-1.243,1.055-1.077,2.082c0.166,1.027,0.917,1.76,1.678,1.637c0.761-0.123,1.243-1.055,1.077-2.082 S136.351,50.079,135.59,50.202z M140.059,47.567c0.208,0,0.416-0.087,0.563-0.256c0.273-0.312,0.242-0.785-0.069-1.058 c-0.143-0.128-3.572-3.049-8.928-0.352c-0.37,0.187-0.52,0.637-0.333,1.007c0.186,0.37,0.636,0.521,1.007,0.333 c4.419-2.223,7.149,0.04,7.269,0.142C139.709,47.507,139.884,47.567,140.059,47.567z M104.799,69.921 c-0.644-0.722-1.701,0.342-1.061,1.061c5.082,5.703,12.904,8.456,20.438,7.339c0.951-0.141,0.547-1.587-0.399-1.446 C116.77,77.913,109.498,75.193,104.799,69.921z M95.276,51.804c0.013-0.065,0.028-0.129,0.045-0.193 c0.017-0.064,0.036-0.127,0.058-0.19c0.006-0.019,0.03-0.084,0.034-0.101c0.207-0.494,0.505-0.828,0.892-1.069 c0.343-0.214,0.478-0.669,0.269-1.026c-0.2-0.342-0.681-0.484-1.026-0.269c-1.313,0.82-2.013,2.386-1.734,3.911 c0.26,1.423,1.476,2.627,2.883,2.922c0.396,0.083,0.811-0.116,0.923-0.524c0.102-0.372-0.125-0.839-0.524-0.923 c-0.958-0.201-1.588-0.873-1.821-1.798c-0.005-0.025-0.01-0.051-0.015-0.076c0.005,0.056,0.005,0.057,0,0.003 c-0.008-0.065-0.011-0.132-0.014-0.197c-0.004-0.124,0.001-0.25,0.014-0.373C95.264,51.876,95.272,51.825,95.276,51.804z M149.107,52.536c0,0.368,0.345,0.798,0.75,0.75c1.64-0.196,2.989-1.452,3.182-3.117c0.188-1.621-0.915-3.176-2.428-3.688 c-0.384-0.13-0.82,0.149-0.923,0.524c-0.113,0.41,0.139,0.792,0.524,0.923c0.002,0.001,0.122,0.049,0.135,0.051 c0.046,0.022,0.092,0.045,0.137,0.07c0.066,0.037,0.131,0.076,0.193,0.119c0.017,0.011,0.057,0.042,0.075,0.055 c0.102,0.085,0.198,0.176,0.286,0.275c0.015,0.017,0.057,0.065,0.067,0.076c0.04,0.053,0.079,0.109,0.114,0.166 c0.041,0.064,0.079,0.13,0.115,0.197c0.005,0.01,0.043,0.086,0.058,0.116c0.011,0.03,0.043,0.111,0.047,0.123 c0.024,0.072,0.046,0.144,0.065,0.218c0.016,0.061,0.028,0.123,0.04,0.185c0.002,0.011,0.002,0.009,0.003,0.015 c0.003,0.028,0.005,0.057,0.007,0.086c0.008,0.13,0.005,0.261-0.007,0.391c-0.004,0.023-0.01,0.062-0.015,0.084 c-0.013,0.061-0.028,0.121-0.045,0.18c-0.017,0.059-0.038,0.118-0.059,0.176c-0.008,0.013-0.056,0.123-0.058,0.127 c-0.057,0.111-0.124,0.214-0.192,0.318c-0.02,0.031-0.022,0.036-0.027,0.046c-0.008,0.007-0.013,0.011-0.038,0.038 c-0.05,0.055-0.099,0.111-0.152,0.164c-0.044,0.044-0.089,0.086-0.136,0.127c-0.016,0.014-0.053,0.044-0.07,0.058 c-0.104,0.076-0.213,0.145-0.327,0.206c-0.044,0.023-0.089,0.045-0.134,0.066c-0.017,0.005-0.113,0.041-0.13,0.047 c-0.071,0.023-0.142,0.042-0.215,0.059c-0.029,0.007-0.237,0.039-0.094,0.022C149.455,51.834,149.107,52.096,149.107,52.536z M144.152,147.447c0.414,0,0.75,0.336,0.75,0.75v15.643c0,11.312-9.204,20.517-20.518,20.517s-20.518-9.204-20.518-20.517v-15.643 c0-0.414,0.336-0.75,0.75-0.75H144.152z M105.367,148.947v4.517h38.035v-4.517H105.367z M143.402,163.84v-8.876h-38.035v8.876 c0,10.485,8.531,19.017,19.018,19.017S143.402,174.325,143.402,163.84z M145.482,94.023c-3.153,3.063-6.355,6.116-9.934,8.685 c-3.517,2.524-7.785,5.138-12.258,5.105c-4.213-0.031-7.485-2.916-10.253-5.779c-3.139-3.246-6.193-6.579-9.284-9.871 c-0.662-0.705-1.721,0.357-1.061,1.061c3.359,3.577,6.632,7.267,10.12,10.718c2.864,2.833,6.282,5.341,10.478,5.371 c4.6,0.034,9.002-2.484,12.653-5.052c3.832-2.695,7.247-5.92,10.6-9.177C147.237,94.41,146.176,93.35,145.482,94.023z M59.167,187.347c0.931,0.262,1.328-1.185,0.399-1.446c-6.105-1.715-11.806-4.486-17.421-7.386 c-5.771-2.98-11.526-5.989-17.288-8.984c-0.855-0.445-1.615,0.849-0.757,1.295c5.901,3.067,11.792,6.154,17.704,9.199 C47.396,182.904,53.092,185.64,59.167,187.347z M225.894,171.808c-11.794,5.575-23.693,10.923-35.692,16.042 c-0.885,0.378-0.122,1.67,0.757,1.295c11.999-5.118,23.898-10.467,35.692-16.042C227.523,172.691,226.763,171.398,225.894,171.808z M71.149,220.668c28.623,3.006,57.441,4.096,86.208,3.227c7.523-0.227,15.147-0.48,22.395-2.709c0.92-0.283,0.528-1.731-0.399-1.446 c-6.489,1.996-13.27,2.367-20.013,2.593c-7.108,0.238-14.22,0.355-21.332,0.354c-14.224-0.002-28.447-0.479-42.639-1.43 c-8.086-0.542-16.161-1.241-24.221-2.088C70.19,219.067,70.197,220.568,71.149,220.668z M106.261,397.145 c-16.807,0.746-33.914,1.493-50.486-2.002c-4.652-0.981-9.222-2.309-13.66-4.018c-0.901-0.347-1.292,1.102-0.399,1.446 c4.669,1.798,9.455,3.132,14.311,4.124c-0.075,0.085-0.136,0.188-0.162,0.333c-0.616,3.423-1.232,6.846-1.847,10.268 c-0.17,0.944,1.275,1.349,1.446,0.399c0.616-3.423,1.232-6.846,1.848-10.268c0.034-0.189-0.009-0.348-0.081-0.487 c4.946,0.95,9.962,1.545,15.004,1.892c-0.26,3.257-0.521,6.513-0.781,9.77c-0.077,0.962,1.423,0.957,1.5,0 c0.258-3.226,0.516-6.452,0.774-9.678c5.919,0.351,11.866,0.383,17.768,0.256c0,3.512,0,7.023,0,10.534c0,0.965,1.5,0.967,1.5,0 c0-3.526,0-7.053,0-10.579c4.423-0.114,8.845-0.295,13.266-0.491C107.223,398.603,107.228,397.102,106.261,397.145z M186.93,389.085 c-16.307,6.282-34.15,7.151-51.442,6.869c-4.898-0.08-9.794-0.267-14.688-0.483c-0.965-0.043-0.963,1.457,0,1.5 c4.407,0.195,8.834,0.371,13.268,0.467c0.004,3.348,0.032,6.697,0.033,10.045c0,0.965,1.5,0.967,1.5,0 c-0.001-3.34-0.029-6.679-0.033-10.019c5.924,0.104,11.854,0.054,17.76-0.294c0.26,3.253,0.52,6.506,0.781,9.759 c0.076,0.956,1.577,0.964,1.5,0c-0.263-3.286-0.526-6.571-0.788-9.857c5.028-0.341,10.035-0.903,15-1.784 c-0.064,0.135-0.102,0.286-0.07,0.465c0.616,3.423,1.232,6.846,1.848,10.268c0.171,0.949,1.617,0.547,1.446-0.399 c-0.616-3.423-1.232-6.846-1.847-10.268c-0.022-0.123-0.067-0.221-0.126-0.301c0.774-0.146,1.548-0.29,2.32-0.452 c4.745-0.995,9.413-2.327,13.938-4.07C188.22,390.188,187.833,388.738,186.93,389.085z M157.667,179.2 c1.472,7.877,6.798,14.841,14.013,18.328c0.865,0.418,1.627-0.875,0.757-1.295c-6.903-3.336-11.915-9.895-13.323-17.431 C158.937,177.853,157.491,178.255,157.667,179.2z M155.627,189.947c-0.306,0.198-0.525,0.693-0.269,1.026 c1.027,1.338,2.054,2.675,3.081,4.013c0.238,0.31,0.656,0.508,1.026,0.269c0.306-0.198,0.525-0.693,0.269-1.026 c-1.027-1.338-2.054-2.675-3.081-4.013C156.415,189.906,155.997,189.709,155.627,189.947z M69.323,265.167 c2.397-11.651,4.793-23.301,7.19-34.952c0.194-0.942-1.252-1.345-1.446-0.399c-2.397,11.651-4.793,23.301-7.19,34.952 C67.683,265.711,69.128,266.114,69.323,265.167z M73.394,151.86c1.355-6.384,1.57-12.915,0.668-19.377 c-0.133-0.952-1.578-0.547-1.446,0.399c0.863,6.179,0.627,12.479-0.668,18.579C71.748,152.403,73.194,152.806,73.394,151.86z M177.847,152.226c-0.745-6.884-1.489-13.767-2.233-20.651c-0.103-0.95-1.604-0.96-1.5,0c0.744,6.884,1.489,13.767,2.233,20.651 C176.45,153.176,177.951,153.186,177.847,152.226z M15.821,218.406c-4.742,5.441-8.744,11.486-11.875,17.989 c-0.417,0.866,0.876,1.627,1.295,0.757c3.075-6.388,6.983-12.341,11.641-17.686C17.513,218.742,16.457,217.677,15.821,218.406z" fill="#2C3242"/></g></svg>