<?xml version="1.0" encoding="UTF-8"?><svg xmlns="http://www.w3.org/2000/svg" xmlns:xlink="http://www.w3.org/1999/xlink" height="433.7" preserveAspectRatio="xMidYMid meet" version="1.0" viewBox="-2.5 -0.8 213.8 433.7" width="213.8" zoomAndPan="magnify"><g fill="#F2A87D" id="change1_1"><path d="M210.273,70.746c-0.436-0.993-2.206-2.367-3.232-2.541c-0.035-0.056-0.078-0.103-0.122-0.149 c0.794-2.412,1.897-4.226,0.303-6.409c-1.607-2.202-6.281-2.787-13.682,6.438c-1.429,1.781-6.331,7.802-7.417,8.954 c-0.845,0.896-3.948-0.621-3.945-1.852c0.009-4.449-1.204-10.681-4.224-13.149c-1.31-1.071-2.969-1.25-4.381-0.256 c-1.935,1.363-2.132,3.883-2.391,6.033c-0.87,7.218-0.21,12.737-0.21,21.182c0,2.426-2.545,9.483-5.181,16.142 c-0.742,1.875-1.046,3.807-0.964,5.69l-1.351-0.261c-2.84-0.548-5.637,1.131-6.488,3.895l-0.814,2.644c0,0-0.085-0.165-0.238-0.458 c-0.05-0.118-0.097-0.237-0.147-0.354c-0.043-0.102-0.101-0.175-0.164-0.236c-1.483-2.815-5.625-10.526-7.979-13.43 c-9.753-12.031-22.265-17.835-35.788-20.927c-0.344-0.079-0.698-0.145-1.044-0.221c0.073,0.016,0.147,0.029,0.22,0.045 c5.008-4.093,7.778-10.65,6.688-17.498c-0.784-4.924-3.428-9.078-7.087-11.9c0.145-0.195,0.216-0.443,0.167-0.701 c-0.068-0.364-0.351-0.634-0.69-0.709c-0.223-1.041-0.434-2.071-0.589-3.075c0,0,2.735-5.302,2.147-6.901 c-0.221-0.602-1.079-1.188-2.128-1.752c0.071-1.225,0.084-2.464,0.032-3.716C108.73,14.966,91.581-0.813,71.272,0.032 C50.963,0.878,35.185,18.027,36.03,38.336c0.205,4.92,1.374,9.57,3.305,13.787c-10.237,4.12-16.653,14.884-14.845,26.244 c0.931,5.847,3.886,10.866,8.033,14.464c-0.001-0.001-0.001-0.001-0.002-0.002c-0.714,0.601-1.416,1.216-2.093,1.861 c-1.94,1.849-3.576,3.888-4.995,6.06c-4.449,6.807-6.772,14.918-9.682,22.578c-4.89,12.871-9.341,26.004-12.472,39.424 c-1.881,8.062-5.777,21.333-0.974,29.105c11.69,18.915,33.028,8.731,33.028,8.731l0.383-1.879c0.094,0.078,0.211,0.129,0.354,0.149 l-20.667,123.35c-0.766,4.572,2.188,8.927,6.715,9.924c5.735,1.263,14.66,2.305,26.986,1.241 c-0.564,16.049-1.155,39.633-0.605,57.663c-0.559-0.179-1.16,0.226-1.162,0.847c-0.016,4.762,0.153,19.239,2.71,24.832 c3.08,6.738,22.333,3.85,22.333,3.85c-0.193,12.321,8.471,11.551,25.798,10.011c17.327-1.54,39.274-5.776,38.697-10.781 c-0.578-5.005-16.942-9.819-16.942-9.819v-14.581c0-0.54-0.467-0.94-0.966-0.898l2.257-62.442c1.123,0.022,2.268,0.037,3.455,0.037 c21.01,0,29.482,2.508,36.265-4.413c2.044-2.086,2.813-5.114,2.146-7.958l-28.479-121.346c0.367-0.377,0.263-1.124-0.303-1.29 l-2.126-9.061c0.118,0.182,0.285,0.288,0.474,0.328c1.496,2.569,5.781,8.693,15.187,14.251 c16.366,9.671,38.159-5.055,42.977-29.581c6.14-31.256,9.493-35.407,8.044-48.523c-0.463-4.19-3.525-7.6-7.599-8.552 c0.211-0.467,0.404-0.946,0.565-1.444c2.513-7.749,5.431-16.402,6.455-18.088c1.745-2.872,4.322-5.389,6.385-8.045 c1.613-2.078,4.633-4.879,4.814-7.69c0.046-0.722-0.254-1.526-0.761-1.991C210.066,76.372,211.34,73.174,210.273,70.746z M110.455,52.309c0.001,0.006,0.002,0.011,0.003,0.017C110.457,52.32,110.456,52.315,110.455,52.309 C110.455,52.309,110.455,52.309,110.455,52.309z M131.099,187.228v-0.114l0.722-0.009c0.013,0.038,0.027,0.076,0.04,0.114 L131.099,187.228z"/><path d="M139.61,64.927c-0.524,1.073,1.082,2.018,1.608,0.94c3.471-7.114,4.344-15.382,2.191-23.026 c-1.972-7.002-6.345-13.137-12.199-17.424c-0.968-0.709-1.898,0.906-0.94,1.608C142.049,35.651,146.01,51.808,139.61,64.927z"/><path d="M155.767,57.189c-0.483,4.624-1.746,9.172-3.689,13.394c-0.498,1.081,1.107,2.029,1.608,0.94 c6.95-15.1,4.99-33.017-5.214-46.156c-2.664-3.431-5.812-6.424-9.34-8.955c-0.975-0.7-1.906,0.915-0.94,1.608 C150.585,26.914,157.349,42.025,155.767,57.189z"/><path d="M128.898,60.152c-0.474,1.088,1.13,2.038,1.608,0.94c3.487-8.002,2.093-17.544-3.583-24.189 c-0.78-0.913-2.092,0.41-1.317,1.317C130.685,44.167,132.026,52.973,128.898,60.152z"/><path d="M122.188,48.709c0.01,0.021,0.081,0.176,0.099,0.211c0.071,0.174,0.135,0.351,0.19,0.53 c0.059,0.193,0.109,0.389,0.15,0.586c0.019,0.092,0.035,0.185,0.05,0.278c0.001,0.014,0.023,0.172,0.026,0.202 c0.039,0.416,0.039,0.836-0.002,1.252c-0.004,0.039-0.008,0.078-0.013,0.118c-0.002,0.011-0.004,0.022-0.01,0.063 c-0.017,0.085-0.03,0.17-0.048,0.255c-0.047,0.226-0.108,0.448-0.178,0.668c-0.148,0.464,0.174,1.037,0.651,1.146 c0.509,0.116,0.987-0.153,1.146-0.651c0.623-1.95,0.382-4.12-0.613-5.904c-0.237-0.426-0.857-0.603-1.274-0.334 c-0.431,0.278-0.588,0.819-0.334,1.274C122.082,48.504,122.137,48.606,122.188,48.709z"/></g><g id="change1_2"><path d="M165.792,105.139c-2.974,7.511,1.085,15.962,8.808,18.331c7.229,2.218,14.897-1.774,17.229-8.967 c2.513-7.749,5.431-16.402,6.455-18.088c1.745-2.872,4.322-5.389,6.385-8.046c1.613-2.078,4.633-4.879,4.814-7.69 c0.046-0.722-0.254-1.526-0.761-1.991c1.344-2.317,2.617-5.516,1.551-7.944c-0.458-1.044-2.402-2.527-3.393-2.573 c0.796-2.471,1.962-4.307,0.343-6.526c-1.607-2.202-6.281-2.787-13.682,6.438c-1.429,1.781-6.331,7.802-7.417,8.954 c-0.845,0.896-3.948-0.621-3.945-1.852c0.009-4.449-1.204-10.681-4.224-13.149c-1.31-1.071-2.969-1.25-4.381-0.256 c-1.935,1.363-2.132,3.883-2.391,6.033c-0.87,7.218-0.21,12.737-0.21,21.182C170.973,91.423,168.429,98.48,165.792,105.139z M121.964,311.597l-3.606,99.757c0,0,18.028,4.207,17.427,9.615c-0.601,5.409-40.864,9.014-52.883,8.413 c-12.019-0.601-9.014-10.216-9.014-10.216s-14.423,2.404-21.634-2.404c-7.211-4.808-2.404-101.56-2.404-101.56L121.964,311.597z M109.526,47.644c1.361,8.853,7.132,19.737-13.42,22.841l-2.545,16.977l-24.382-0.526c0.842-1.413,1.544-2.912,2.086-4.478 c0.252-0.03,0.503-0.041,0.756-0.081c10.245-1.631,17.229-11.258,15.598-21.504c-0.634-3.981-2.478-7.463-5.095-10.142 c-3.619,1.141-7.527-0.754-8.838-4.354c-1.347-3.7,0.561-7.792,4.261-9.139c1.517-0.552,3.097-0.55,4.529-0.109 c4.104-4.107,6.256-10.045,5.274-16.218c-0.446-2.801-1.506-5.345-2.996-7.549c8.159-0.927,15.435,4.447,17.849,13.587 c0.989,3.744,0.593,7.306,1.933,9.215c0.938,1.337,6.518,2.893,7.137,4.579C112.26,42.342,109.526,47.644,109.526,47.644z" fill="#F2A87D"/></g><g id="change2_1"><path d="M131.993,187.218l31.098,132.504c0.667,2.844-0.101,5.872-2.146,7.958 c-6.783,6.921-15.254,4.413-36.265,4.413c-24.279,0-34.326-5.023-65.302,0c-17.774,2.882-30.035,1.63-37.258,0.039 c-4.527-0.997-7.481-5.352-6.715-9.924L37.84,188.299L131.993,187.218z" fill="#F5C46A"/></g><g id="change3_1"><path d="M190.819,173.023c-4.818,24.526-26.611,39.252-42.977,29.581c-12.279-7.256-15.85-15.501-15.85-15.501 l-94.153,1.197l-2.506,12.288c0,0-21.338,10.184-33.028-8.731c-4.803-7.772-0.906-21.043,0.974-29.105 c3.131-13.42,7.582-26.552,12.472-39.424c2.91-7.66,5.233-15.771,9.682-22.578c1.419-2.172,3.055-4.21,4.995-6.06 c0.677-0.645,1.379-1.26,2.093-1.861c5.215,4.525,12.318,6.802,19.671,5.632c7.379-1.175,13.44-5.572,16.986-11.525 c0.098-0.164,0.187-0.334,0.281-0.5c0.144-0.256,0.287-0.512,0.422-0.773c0.093-0.18,0.183-0.363,0.271-0.545 c0.135-0.277,0.264-0.557,0.389-0.84c0.069-0.156,0.139-0.311,0.204-0.469c0.184-0.445,0.36-0.893,0.518-1.35 c0.252-0.03,0.503-0.041,0.756-0.081c3.331-0.53,6.313-1.909,8.765-3.879c10.604-0.14,21.337,0.979,31.073,3.206 c13.522,3.092,26.035,8.896,35.788,20.927c2.903,3.581,8.527,14.478,8.527,14.478l0.814-2.644c0.851-2.764,3.648-4.443,6.488-3.895 l27.359,5.281c4.288,0.805,7.548,4.314,8.028,8.65C200.312,137.615,196.959,141.767,190.819,173.023z M47.339,391.882 c-0.016,4.762,0.153,19.239,2.71,24.832c3.08,6.738,22.333,3.85,22.333,3.85c-0.193,12.321,8.471,11.551,25.798,10.011 c17.327-1.54,39.274-5.776,38.697-10.781c-0.578-5.006-16.942-9.819-16.942-9.819v-14.581c0-0.636-0.648-1.085-1.233-0.836 c-16.279,6.95-42.085-0.371-42.085-0.371c-12.028,4.59-24.056-0.969-27.956-3.092C48.063,390.771,47.341,391.202,47.339,391.882z M86.897,20.247c-3.458-1.809-7.317-2.412-11.168-1.837c-0.802,0.12-1.244,1.132-1.048,1.845c0.236,0.859,1.041,1.168,1.845,1.048 c1.273-0.19,3.148-0.168,4.43,0.055c1.6,0.278,3.061,0.765,4.426,1.479c0.718,0.375,1.63,0.184,2.052-0.538 C87.83,21.624,87.618,20.623,86.897,20.247L86.897,20.247z" fill="#C05946"/></g><g id="change4_1"><path d="M98.922,35.465c0.179,1.233-0.417,2.339-1.33,2.472c-0.913,0.132-1.798-0.76-1.977-1.992 c-0.179-1.233,0.417-2.34,1.33-2.472S98.743,34.232,98.922,35.465z M99.832,29.95c0.079-0.489-0.253-0.951-0.742-1.031 c-7.078-1.156-9.954,3.411-10.073,3.605c-0.256,0.422-0.123,0.97,0.298,1.229c0.146,0.091,0.309,0.134,0.469,0.134 c0.301,0,0.595-0.151,0.766-0.424c0.096-0.152,2.396-3.723,8.252-2.771C99.288,30.768,99.752,30.44,99.832,29.95z M80.236,40.792 c0.405-0.284,0.503-0.843,0.22-1.249c-0.284-0.406-0.846-0.505-1.251-0.222c-0.099,0.069-2.407,1.712-2.568,4.252 c-0.102,1.591,0.643,3.12,2.211,4.544c0.172,0.156,0.388,0.233,0.604,0.233c0.244,0,0.487-0.1,0.665-0.295 c0.333-0.367,0.306-0.935-0.062-1.269c-1.141-1.035-1.688-2.075-1.627-3.091C78.528,42.03,80.205,40.815,80.236,40.792z M100.995,52.377l8.76-1.663c0.483-0.095,0.958,0.227,1.05,0.714c0.049,0.258-0.022,0.506-0.167,0.701 c3.659,2.823,6.303,6.976,7.087,11.9c1.09,6.847-1.681,13.405-6.688,17.498c-5.19-1.147-10.647-1.988-16.212-2.489l1.282-8.552 c13.506-2.04,15.643-7.44,15.135-13.415c-1.023,0.293-1.991,0.425-2.891,0.425c-4.878,0.001-7.853-3.631-7.889-3.675 c-0.196-0.246-0.25-0.577-0.142-0.873C100.429,52.652,100.685,52.436,100.995,52.377z M103.042,53.816 c1.468,1.153,4.241,2.629,7.957,1.459c0.006-0.002,0.013,0,0.019-0.002c-0.154-0.984-0.353-1.976-0.563-2.964 c-0.106,0.079-0.226,0.142-0.365,0.168L103.042,53.816z M111.354,126.314c-0.354-0.923-1.855-0.522-1.497,0.413 c6.022,15.721,11.838,31.521,17.439,47.398c1.612,4.569,3.206,9.145,4.783,13.726c0.323,0.939,1.823,0.536,1.497-0.413 c-5.481-15.918-11.17-31.764-17.073-47.531C114.805,135.369,113.088,130.838,111.354,126.314z M44.588,128.211 c-2.546,14.777-4.552,29.607-6.157,44.515c-0.525,4.874-1.032,9.75-1.542,14.625c-0.104,0.992,1.449,0.985,1.552,0 c1.572-15,3.101-30.004,5.384-44.916c0.706-4.611,1.468-9.214,2.26-13.812C46.253,127.647,44.758,127.227,44.588,128.211z M75.63,395.631c-0.967,8.478-1.934,16.956-2.901,25.433c-0.113,0.991,1.44,0.983,1.552,0c0.967-8.478,1.934-16.956,2.901-25.433 C77.296,394.64,75.743,394.648,75.63,395.631z M77.573,331.715c0,18.225,0,36.451,0,54.676c0,0.999,1.552,1,1.552,0 c0-18.225,0-36.451,0-54.676C79.125,330.717,77.573,330.715,77.573,331.715z M134.084,197.04c-2.837,0-5.674,0.009-8.512,0.013 c-0.798-3.368-1.596-6.736-2.395-10.104c-0.23-0.972-1.727-0.56-1.497,0.413c0.766,3.231,1.531,6.462,2.297,9.693 c-5.911,0.01-11.821,0.024-17.732,0.045c0.023-0.116,0.03-0.236,0.01-0.359c-0.503-2.967-0.965-5.94-1.387-8.919 c-0.059-0.415-0.588-0.643-0.955-0.542c-0.447,0.123-0.601,0.538-0.542,0.955c0.419,2.963,0.879,5.921,1.379,8.871 c-6.136,0.023-12.272,0.046-18.407,0.073c0-3.157,0-6.313,0-9.47c0-0.999-1.552-1-1.552,0c0,3.159,0,6.318,0,9.477 c-5.416,0.024-10.831,0.045-16.247,0.066c0.534-3.112,1.154-6.21,1.6-9.337c0.059-0.414-0.102-0.834-0.542-0.955 c-0.364-0.1-0.895,0.125-0.955,0.542c-0.454,3.191-1.092,6.351-1.633,9.528c-0.013,0.077-0.009,0.152-0.004,0.228 c-3.132,0.012-6.264,0.026-9.396,0.035c-2.774,0.009-5.549,0.008-8.323,0.014c0.687-3.017,1.224-6.062,1.794-9.103 c0.183-0.976-1.313-1.395-1.497-0.413c-0.596,3.18-1.153,6.366-1.886,9.518c-3.839,0.007-7.677,0.019-11.516,0.019 c-0.999,0-1,1.552,0,1.552c25.49-0.001,50.98-0.176,76.47-0.253c7.143-0.022,14.285-0.036,21.428-0.036 C135.083,198.592,135.085,197.04,134.084,197.04z M125.47,94.703c-0.812-0.584-1.588,0.762-0.783,1.34 c7.795,5.603,13.807,13.52,17.119,22.53c0.342,0.93,1.842,0.528,1.497-0.413C139.841,108.742,133.617,100.559,125.47,94.703z M40.035,238.324c-3.234,16.949-6.469,33.899-9.703,50.848c-0.186,0.976,1.309,1.394,1.497,0.413 c3.234-16.949,6.469-33.898,9.703-50.848C41.718,237.76,40.223,237.342,40.035,238.324z M42.996,259.709 c-0.561,2.506-1.122,5.013-1.683,7.519c-0.218,0.973,1.278,1.389,1.497,0.413c0.561-2.506,1.122-5.013,1.683-7.519 C44.711,259.149,43.215,258.733,42.996,259.709z M122.188,48.709c0.01,0.021,0.081,0.176,0.099,0.211 c0.071,0.174,0.135,0.351,0.19,0.53c0.059,0.193,0.109,0.389,0.15,0.586c0.019,0.092,0.035,0.185,0.05,0.278 c0.001,0.014,0.023,0.172,0.026,0.202c0.039,0.416,0.039,0.836-0.002,1.252c-0.004,0.039-0.008,0.078-0.013,0.118 c-0.002,0.011-0.004,0.022-0.01,0.063c-0.017,0.085-0.03,0.17-0.048,0.255c-0.047,0.226-0.108,0.448-0.178,0.668 c-0.148,0.464,0.174,1.037,0.651,1.146c0.509,0.116,0.987-0.153,1.146-0.651c0.623-1.95,0.382-4.12-0.613-5.904 c-0.237-0.426-0.857-0.603-1.274-0.334c-0.431,0.278-0.588,0.819-0.334,1.274C122.082,48.504,122.137,48.606,122.188,48.709z M128.898,60.152c-0.474,1.088,1.13,2.038,1.608,0.94c3.487-8.002,2.093-17.544-3.583-24.189c-0.78-0.913-2.092,0.41-1.317,1.317 C130.685,44.167,132.026,52.973,128.898,60.152z M131.211,25.417c-0.968-0.709-1.898,0.906-0.94,1.608 c11.779,8.626,15.739,24.783,9.339,37.902c-0.524,1.073,1.082,2.018,1.608,0.94c3.471-7.114,4.344-15.382,2.191-23.026 C141.438,35.838,137.065,29.704,131.211,25.417z M148.472,25.367c-2.664-3.431-5.812-6.424-9.34-8.955 c-0.975-0.7-1.906,0.915-0.94,1.608c12.394,8.894,19.157,24.004,17.575,39.169c-0.483,4.624-1.746,9.172-3.689,13.394 c-0.498,1.081,1.107,2.029,1.608,0.94C160.635,56.423,158.675,38.506,148.472,25.367z M155.79,116.296 c-0.388-0.917-1.725-0.127-1.34,0.783c5.217,12.343,9.657,25.006,13.314,37.897c0.272,0.959,1.77,0.552,1.497-0.413 C165.565,141.54,161.06,128.765,155.79,116.296z M24.49,78.366c-1.808-11.36,4.608-22.124,14.845-26.244 c-1.932-4.216-3.101-8.866-3.305-13.787C35.185,18.027,50.963,0.878,71.272,0.032c20.309-0.845,37.458,14.933,38.303,35.242 c0.052,1.252,0.04,2.491-0.032,3.716c-1.889-1.017-4.406-1.968-5.009-2.827c-1.339-1.909-0.944-5.471-1.933-9.215 c-2.414-9.14-9.69-14.514-17.849-13.587c0.377,0.557,0.725,1.136,1.044,1.735c0,0,0,0,0,0c0.128,0.24,0.248,0.485,0.366,0.732 c0.18,0.378,0.35,0.762,0.506,1.154c0,0,0,0,0,0c0.054,0.135,0.102,0.273,0.152,0.41c0.212,0.572,0.398,1.158,0.554,1.759 c0.005,0.022,0.011,0.044,0.016,0.066c0,0,0,0,0,0c0.142,0.554,0.266,1.116,0.358,1.692c0.092,0.575,0.147,1.147,0.185,1.717 c0,0,0,0,0,0c0.006,0.086,0.012,0.172,0.017,0.257c0.03,0.566,0.036,1.129,0.015,1.688c0,0,0,0,0,0 c-0.004,0.119-0.013,0.236-0.02,0.354c0,0,0,0,0,0c-0.061,1.077-0.214,2.135-0.453,3.165c0,0,0,0,0,0 c-0.036,0.156-0.072,0.313-0.112,0.469c0,0,0,0,0,0c-0.252,0.97-0.584,1.911-0.984,2.82c0,0,0,0,0,0c0,0,0,0,0,0 c-0.125,0.284-0.257,0.564-0.395,0.841c0,0,0,0.001,0,0.001c0,0.001-0.001,0.001-0.001,0.002c-0.129,0.258-0.261,0.513-0.402,0.764 c0,0,0,0,0,0c-0.12,0.214-0.242,0.426-0.369,0.635c-0.146,0.239-0.301,0.473-0.458,0.706c-0.003,0.004-0.006,0.009-0.009,0.013 c0,0-0.001,0.001-0.001,0.001c-0.234,0.346-0.477,0.685-0.733,1.015c0,0,0,0,0,0h0c-0.481,0.619-0.998,1.212-1.553,1.768 c-0.068-0.021-0.14-0.028-0.209-0.047c-0.293-0.081-0.589-0.156-0.892-0.2c-0.059-0.008-0.12-0.004-0.18-0.011 c-0.315-0.037-0.633-0.065-0.954-0.06c-0.083,0.001-0.166,0.021-0.249,0.025c-0.3,0.016-0.6,0.035-0.901,0.09 c-0.384,0.071-0.767,0.174-1.146,0.312c-0.263,0.096-0.514,0.208-0.758,0.331c-0.075,0.038-0.147,0.08-0.221,0.121 c-0.168,0.092-0.332,0.188-0.49,0.291c-0.075,0.049-0.149,0.1-0.222,0.152c-0.156,0.111-0.306,0.228-0.45,0.349 c-0.058,0.049-0.118,0.097-0.175,0.147c-0.189,0.17-0.37,0.346-0.538,0.533c-0.005,0.006-0.011,0.011-0.017,0.017 c-0.183,0.205-0.352,0.42-0.509,0.643c-0.021,0.029-0.038,0.06-0.058,0.089c-0.13,0.191-0.251,0.387-0.362,0.589 c-0.027,0.049-0.053,0.1-0.079,0.15c-0.101,0.194-0.193,0.393-0.276,0.596c-0.018,0.045-0.038,0.09-0.056,0.136 c-0.094,0.245-0.178,0.495-0.245,0.75c-0.288,1.097-0.317,2.27-0.044,3.428c0.064,0.274,0.14,0.547,0.239,0.817 c0.164,0.45,0.368,0.873,0.607,1.267c0.05,0.082,0.108,0.158,0.161,0.238c0.074,0.111,0.144,0.225,0.224,0.331 c0.099,0.132,0.206,0.255,0.313,0.378c0.041,0.047,0.078,0.098,0.12,0.144c0.103,0.113,0.215,0.218,0.325,0.324 c0.051,0.05,0.099,0.104,0.152,0.152c0.083,0.076,0.173,0.143,0.26,0.214c0.086,0.07,0.168,0.145,0.257,0.212 c0.147,0.11,0.301,0.211,0.456,0.309c0.032,0.021,0.062,0.044,0.095,0.064c0.182,0.111,0.369,0.213,0.56,0.308 c0.008,0.004,0.015,0.009,0.022,0.012c0.159,0.078,0.323,0.146,0.488,0.212c0.041,0.017,0.081,0.037,0.122,0.053 c0.827,0.314,1.714,0.476,2.616,0.465c0.003,0,0.006,0,0.009,0c0.67-0.009,1.348-0.114,2.017-0.321 c0.011-0.004,0.023-0.005,0.034-0.009c0.015,0.015,0.028,0.032,0.043,0.047c0,0,0,0,0,0c0.094,0.097,0.182,0.2,0.273,0.301 c0.28,0.301,0.552,0.61,0.813,0.93c0,0,0.001,0.001,0.001,0.001c0.128,0.157,0.25,0.319,0.373,0.479 c0.226,0.297,0.443,0.602,0.651,0.913c0,0,0,0,0,0c0.048,0.072,0.094,0.144,0.143,0.215c1.388,2.133,2.372,4.577,2.798,7.255 c0.09,0.563,0.143,1.122,0.181,1.68c0.012,0.177,0.02,0.353,0.027,0.529c0.015,0.397,0.017,0.791,0.008,1.184 c-0.004,0.183-0.002,0.368-0.011,0.55c-0.025,0.465-0.071,0.926-0.13,1.383c-0.04,0.315-0.094,0.626-0.15,0.937 c-0.029,0.159-0.06,0.317-0.093,0.475c-0.241,1.171-0.592,2.305-1.044,3.394c0,0,0,0.001,0,0.001h0 c-2.419,5.826-7.698,10.307-14.385,11.371c-0.253,0.04-0.504,0.052-0.756,0.081c-0.158,0.456-0.334,0.905-0.518,1.35 c-0.065,0.157-0.135,0.313-0.204,0.469c-0.124,0.283-0.254,0.563-0.389,0.84c-0.089,0.182-0.178,0.365-0.271,0.545 c-0.135,0.261-0.278,0.517-0.422,0.773c-0.094,0.167-0.184,0.336-0.281,0.5c-3.546,5.954-9.607,10.351-16.986,11.525 C38.994,100.561,26.591,91.565,24.49,78.366z M74.682,20.255c0.236,0.859,1.041,1.168,1.845,1.048 c1.273-0.19,3.148-0.168,4.43,0.055c1.6,0.278,3.061,0.765,4.426,1.479c0.718,0.375,1.63,0.184,2.052-0.538 c0.395-0.675,0.182-1.676-0.538-2.052c-3.458-1.808-7.318-2.412-11.168-1.837C74.928,18.529,74.486,19.541,74.682,20.255z M206.076,68.007c-5.595,4.306-10.892,8.978-15.844,14.011c-0.701,0.713,0.396,1.811,1.098,1.097 c4.856-4.936,10.042-9.545,15.53-13.768C207.64,68.747,206.868,67.398,206.076,68.007z M207.028,78.164 c-3.164,2.789-6.328,5.578-9.492,8.368c-0.751,0.662,0.35,1.756,1.098,1.098c3.164-2.789,6.328-5.578,9.492-8.368 C208.876,78.599,207.775,77.505,207.028,78.164z" fill="#2C3242"/></g></svg>